<svg width="12" height="12" viewBox="0 0 12 12" fill="none" xmlns="http://www.w3.org/2000/svg">
<path d="M6.03093 12C4.3473 12 2.92123 11.4189 1.75274 10.2566C0.584246 9.09434 0 7.67588 0 6.00122C0 4.32656 0.584246 2.90769 1.75274 1.74462C2.92123 0.581538 4.3473 0 6.03093 0C6.97114 0 7.86084 0.207951 8.70002 0.623853C9.5392 1.03976 10.2371 1.62668 10.7938 2.38464V0H12V4.89228H7.0825V3.6923H10.2588C9.83508 2.91999 9.24745 2.31152 8.4959 1.8669C7.74434 1.42229 6.92269 1.19998 6.03093 1.19998C4.69072 1.19998 3.55154 1.66665 2.61339 2.59998C1.67524 3.53332 1.20616 4.66666 1.20616 6C1.20616 7.33334 1.67524 8.46668 2.61339 9.40002C3.55154 10.3334 4.69072 10.8 6.03093 10.8C7.06289 10.8 7.99434 10.5067 8.82528 9.92002C9.65621 9.33335 10.2392 8.56001 10.5743 7.60001H11.8454C11.4804 8.90565 10.7616 9.96539 9.68892 10.7792C8.61624 11.5931 7.39691 12 6.03093 12Z"/>
</svg>
