<svg width="12" height="15" viewBox="0.01 0 12 15" fill="none" xmlns="http://www.w3.org/2000/svg">
<path d="M4.24 8.3538L4.90154 6.28947L3.16154 5.01462H5.32615L6 2.95906L6.67385 5.01462H8.83846L7.08616 6.28947L7.74769 8.3538L6 7.07017L4.24 8.3538ZM1.60001 15V9.55849C1.09334 9.05556 0.700003 8.47418 0.420002 7.81433C0.140001 7.15449 0 6.45029 0 5.70175C0 4.11111 0.581539 2.76316 1.74462 1.65789C2.90769 0.552632 4.32615 0 6 0C7.67385 0 9.09231 0.552632 10.2554 1.65789C11.4185 2.76316 12 4.11111 12 5.70175C12 6.45029 11.86 7.15449 11.58 7.81433C11.3 8.47418 10.9067 9.05556 10.4 9.55849V15L6 13.6696L1.60001 15ZM6 10.2632C7.33334 10.2632 8.46668 9.81971 9.40002 8.93276C10.3334 8.04582 10.8 6.96882 10.8 5.70175C10.8 4.43469 10.3334 3.35769 9.40002 2.47074C8.46668 1.5838 7.33334 1.14033 6 1.14033C4.66666 1.14033 3.53332 1.5838 2.59998 2.47074C1.66665 3.35769 1.19998 4.43469 1.19998 5.70175C1.19998 6.96882 1.66665 8.04582 2.59998 8.93276C3.53332 9.81971 4.66666 10.2632 6 10.2632ZM2.79998 13.3304L6 12.5146L9.20002 13.3304V10.5058C8.7436 10.7885 8.24411 11.0088 7.70155 11.1667C7.15898 11.3246 6.5918 11.4035 6 11.4035C5.4082 11.4035 4.84102 11.3246 4.29845 11.1667C3.75589 11.0088 3.2564 10.7885 2.79998 10.5058V13.3304Z"/>
</svg>
