<svg width="15" height="15" viewBox="0 0 15 16" fill="none" xmlns="http://www.w3.org/2000/svg">
<path d="M5.65802 15L5.35409 12.5951C5.14021 12.5243 4.92095 12.4251 4.69633 12.2976C4.4717 12.17 4.27086 12.0334 4.09383 11.8876L1.84198 12.8289L0 9.67107L1.94791 8.2151C1.92949 8.09769 1.91645 7.97977 1.90877 7.86134C1.90109 7.74292 1.89726 7.625 1.89726 7.50759C1.89726 7.39524 1.90109 7.28112 1.90877 7.16523C1.91645 7.04933 1.92949 6.92256 1.94791 6.7849L0 5.32893L1.84198 2.18625L4.08615 3.11996C4.27854 2.96914 4.48398 2.83123 4.70247 2.70623C4.92095 2.58123 5.1356 2.48077 5.34641 2.40486L5.65802 0H9.34198L9.64591 2.41245C9.88538 2.49848 10.1021 2.59894 10.296 2.71382C10.4899 2.8287 10.6856 2.96408 10.8831 3.11996L13.158 2.18625L15 5.32893L13.0214 6.80768C13.05 6.93521 13.0656 7.05439 13.0682 7.16523C13.0708 7.27606 13.072 7.38765 13.072 7.5C13.072 7.60729 13.0695 7.71635 13.0644 7.82718C13.0592 7.93801 13.0408 8.06479 13.0091 8.20751L14.9724 9.67107L13.1304 12.8289L10.8831 11.88C10.6856 12.0359 10.484 12.1738 10.2783 12.2938C10.0726 12.4137 9.86184 12.5116 9.64591 12.5876L9.34198 15H5.65802ZM6.7018 13.8158H8.27057L8.55762 11.7009C8.96491 11.5957 9.33714 11.4461 9.67433 11.2523C10.0115 11.0585 10.3367 10.8092 10.6498 10.5046L12.6331 11.329L13.419 9.98685L11.6875 8.69636C11.754 8.4919 11.7993 8.2915 11.8233 8.09514C11.8474 7.89879 11.8594 7.70041 11.8594 7.5C11.8594 7.29453 11.8474 7.09615 11.8233 6.90486C11.7993 6.71356 11.754 6.51822 11.6875 6.31882L13.4343 5.01315L12.6484 3.67104L10.6422 4.50758C10.3751 4.22519 10.055 3.9757 9.68201 3.7591C9.309 3.5425 8.93165 3.38915 8.54994 3.29907L8.2982 1.18419H6.71408L6.45006 3.29148C6.04277 3.38662 5.66669 3.53237 5.32183 3.72873C4.97696 3.92509 4.64796 4.17812 4.33482 4.48784L2.35159 3.67104L1.56567 5.01315L3.28948 6.2839C3.22296 6.47115 3.1764 6.66599 3.14979 6.86842C3.12319 7.07085 3.10988 7.28391 3.10988 7.50759C3.10988 7.71306 3.12319 7.91448 3.14979 8.11184C3.1764 8.30921 3.2204 8.50405 3.2818 8.69636L1.56567 9.98685L2.35159 11.329L4.32714 10.5C4.63005 10.8077 4.95394 11.0597 5.2988 11.2561C5.64367 11.4524 6.02486 11.6033 6.44238 11.7085L6.7018 13.8158ZM7.50921 9.8684C8.17335 9.8684 8.73848 9.63789 9.2046 9.17686C9.67073 8.71583 9.90379 8.15688 9.90379 7.5C9.90379 6.84312 9.67073 6.28417 9.2046 5.82314C8.73848 5.36211 8.17335 5.1316 7.50921 5.1316C6.83688 5.1316 6.26971 5.36211 5.80767 5.82314C5.34564 6.28417 5.11463 6.84312 5.11463 7.5C5.11463 8.15688 5.34564 8.71583 5.80767 9.17686C6.26971 9.63789 6.83688 9.8684 7.50921 9.8684Z"/>
</svg>
