<svg width="15" height="14" viewBox="1 0 15 14" fill="none" xmlns="http://www.w3.org/2000/svg">
<path d="M12.4223 4.66663L11.6214 3.05836L9.84468 2.33332L11.6214 1.60827L12.4223 0L13.2233 1.60827L15 2.33332L13.2233 3.05836L12.4223 4.66663ZM12.4223 14L11.6214 12.3917L9.84468 11.6667L11.6214 10.9416L12.4223 9.33337L13.2233 10.9416L15 11.6667L13.2233 12.3917L12.4223 14ZM5.14075 11.6534L3.53882 8.45008L0 7L3.53882 5.54992L5.14075 2.34655L6.74268 5.54992L10.2815 7L6.74268 8.45008L5.14075 11.6534ZM5.14075 9.15933L5.89804 7.6855L7.52621 7L5.89804 6.3145L5.14075 4.84067L4.38346 6.3145L2.7553 7L4.38346 7.6855L5.14075 9.15933Z"/>
</svg>
