<svg width="14" height="15" viewBox="0.1 0 14 16" xmlns="http://www.w3.org/2000/svg">
<path d="M0.900691 9.10527L0 8.44759L3.41134 2.88751L5.58156 5.46925L8.461 0.702411L10.6312 4.01973L13.1135 0L14 0.66489L10.6539 6.08363L8.50213 2.78506L5.73475 7.36584L3.55318 4.77257L0.900691 9.10527ZM9.44691 12.375C10.001 12.375 10.4693 12.1805 10.8518 11.7915C11.2343 11.4025 11.4255 10.9263 11.4255 10.3629C11.4255 9.79948 11.2343 9.32331 10.8517 8.93436C10.4691 8.54542 10.0008 8.35094 9.44671 8.35094C8.89263 8.35094 8.42434 8.54545 8.04183 8.93447C7.65932 9.32348 7.46807 9.79968 7.46807 10.3631C7.46807 10.9265 7.65936 11.4027 8.04193 11.7916C8.42451 12.1805 8.89283 12.375 9.44691 12.375ZM13.2298 15L11.1957 12.9317C10.947 13.1163 10.6745 13.2572 10.378 13.3543C10.0816 13.4514 9.77116 13.5 9.44681 13.5C8.58984 13.5 7.86141 13.1951 7.26153 12.5854C6.66165 11.9757 6.36171 11.2353 6.36171 10.3643C6.36171 9.49322 6.66153 8.75241 7.26116 8.14183C7.8608 7.53126 8.58893 7.22597 9.44556 7.22597C10.3022 7.22597 11.0307 7.53095 11.6312 8.14093C12.2317 8.7509 12.5319 9.49159 12.5319 10.363C12.5319 10.6928 12.4842 11.0096 12.3886 11.3135C12.2931 11.6173 12.1546 11.8957 11.973 12.1486L14 14.2168L13.2298 15Z"/>
</svg>
