<svg width="13" height="15" viewBox="0.1 0 13 15" fill="none" xmlns="http://www.w3.org/2000/svg">
<path d="M4.35294 1.11109V0H8.64706V1.11109H4.35294ZM5.92648 9.302H7.07352V5.14246H5.92648V9.302ZM6.5 15C5.60588 15 4.76471 14.8348 3.97647 14.5043C3.18823 14.1738 2.49902 13.7227 1.90882 13.151C1.31863 12.5793 0.852941 11.9117 0.511764 11.1482C0.170588 10.3846 0 9.56981 0 8.70371C0 7.83762 0.170588 7.0228 0.511764 6.25927C0.852941 5.49574 1.31863 4.82813 1.90882 4.25643C2.49902 3.68473 3.18823 3.23364 3.97647 2.90315C4.76471 2.57267 5.60588 2.40743 6.5 2.40743C7.26569 2.40743 8.00319 2.53326 8.7125 2.78492C9.42182 3.03658 10.0804 3.39699 10.6882 3.86612L11.6412 2.94305L12.447 3.72366L11.4941 4.64673C11.9784 5.23553 12.3505 5.87346 12.6103 6.56055C12.8701 7.24763 13 7.96202 13 8.70371C13 9.56981 12.8294 10.3846 12.4882 11.1482C12.1471 11.9117 11.6814 12.5793 11.0912 13.151C10.501 13.7227 9.81176 14.1738 9.02353 14.5043C8.23529 14.8348 7.39412 15 6.5 15ZM6.5 13.8889C7.97844 13.8889 9.24021 13.3827 10.2853 12.3704C11.3304 11.358 11.853 10.1358 11.853 8.70371C11.853 7.27161 11.3304 6.04939 10.2853 5.03704C9.24021 4.02469 7.97844 3.51851 6.5 3.51851C5.02156 3.51851 3.75979 4.02469 2.71469 5.03704C1.66959 6.04939 1.14704 7.27161 1.14704 8.70371C1.14704 10.1358 1.66959 11.358 2.71469 12.3704C3.75979 13.3827 5.02156 13.8889 6.5 13.8889Z"/>
</svg>
